<svg id="f68d6db7-6e80-401a-b1c1-1ba7c5a3c2bc" data-name="Layer 1" xmlns="http://www.w3.org/2000/svg" xmlns:xlink="http://www.w3.org/1999/xlink" width="865.76" height="682.89" viewBox="0 0 865.76 682.89"><defs><clipPath id="f1f7be3c-b55e-4734-be85-8ddddc151e72"><path id="a5e151f5-1c41-42f3-aa51-ab34d88ef7e2" data-name="SVGID" d="M683.15,606.26a4,4,0,0,1,.36-1.35c1.69-4.08.63-11.4,0-22-1.51-24.91-3.3-53-3.2-73,.05-9.86,1.73-53.67,3.18-90.33,1.16-28.82,2.17-53.21,2.17-53.21l64-3.83S728.88,505.77,727,513.68c-5.34,21.93-.67,26.13,0,45.46,1.18,33.89,1.28,27.39,1.28,33.35,0,2.83,2.71,7,2.49,9.78s-3.54,4.06-3.86,8.31,1.75,6.63,1.47,10.42-3,8.29-7.75,8.88S693.66,629.27,689,628c-3.93-1.1-5-4-6-6.08-.19-.37-.38-.73-.56-1-1.29-2,.69-3.2,1.49-7.45S682.87,609,683.15,606.26Z" fill="none"/></clipPath><clipPath id="a256b1ac-6327-48da-afc4-54752d20151b"><path id="bd81ae94-39f9-4e9b-94c5-03ee10a61f84" data-name="SVGID" d="M739.74,627.59l3.6,11.13c2.85,8.81-1.35,17.13-9.7,19h-.36c.36-.07-10.84-5.26-13.89,1.16-1.54,3.24.56,9.75.56,9.75,3,1.23,57.21.93,57.21.93s1.23,0,.69-6.59-4.78-11.83-5.62-14.59c-4-12.65-.48-17.92-.56-18.87s-24-1.44-24-1.44Z" fill="none"/></clipPath><clipPath id="f21a3439-6625-4270-810c-14825efb10dc"><path id="b4a880f8-fb25-461b-8f70-e0b40c0943b6" data-name="SVGID" d="M691.17,396c2.37,14.6,7,22.14,7,22.14,4.88,36.9,10.83,81.52,12.52,91.48,3.32,20,10,48,15.74,72.85,2.44,10.67,4.78,18,3.75,22a3.43,3.43,0,0,0-.12,1.35c.25,2.78,2.16,2.9,2.08,7.15s-1.85,5.44-.22,7.46,3,5.79,7.78,7.09,27.2,2.51,31.88,1.92,6.59-5.1,6.23-8.86-2.86-6.17-3.27-10.4,2.71-5.47,2.44-8.3-3.73-7-4.18-9.78c-1-5.94,0,.59-7-33.29-4-19.31-9.38-23.49-7.81-45.38.5-7.89-3.38-150.89-3.38-150.89l-63.29,3.83" fill="none"/></clipPath><clipPath id="b9d26a6f-c0cb-40cc-884f-d978d84f6080"><path id="bbed6a1f-0a35-4d4c-872d-3591ddcac040" data-name="SVGID" d="M679.77,375.31c15.26,4.48,50.11,11.78,78.91-2.91h0c-2.83-25.07-6.88-28.54-.82-53.95,1.66-7,10.27-21.82,13-42.36-19.91,13.62-30.56,1.6-32.05-12-1.31-12.11,9.84-27,13.94-34.52-3.93-3-11.5-2.74-13.37-2.17-3.55,9.12-8.28,30-20.19,37.27s-16-11.11-11.28-27.29l-6.95,2.42C682.38,285.39,684.43,349.77,679.77,375.31Z" fill="none"/></clipPath></defs><path d="M375.36,530.88s9.7,22.23,45.16,21.69c0,0,39.73,4,68.25-18.66l.22-.19a80.54,80.54,0,0,0,19.6-25.59l31-63.8H415.19Z" fill="#2f2e41"/><path d="M503.7,507.78c.28-.45,32.79-63.45,32.79-63.45H399.73l-29.06,51.19s-15.47,33.86,25.59,48.79c0,0,33.33,10,71.72-5.07A82.21,82.21,0,0,0,503.7,507.78Z" fill="#2f2e41"/><path d="M503.7,507.78c.28-.45,32.79-63.45,32.79-63.45H399.73l-29.06,51.19s-15.47,33.86,25.59,48.79c0,0,33.33,10,71.72-5.07A82.21,82.21,0,0,0,503.7,507.78Z" opacity="0.3" style="isolation:isolate"/><rect x="539.43" y="444.33" width="31.19" height="219.95" fill="#ccc"/><rect x="570.62" y="444.33" width="13.24" height="219.95" fill="#ccc"/><rect x="570.62" y="444.33" width="13.24" height="219.95" opacity="0.2"/><path d="M663.66,444.33H539.43v-89s-2.14-49.06-56-54.39H606.08a57.58,57.58,0,0,1,57.58,57.58Z" fill="#2f2e41"/><path d="M539.43,355.29s-.54-48-56-54.39H453.05s-46.39,2.66-50.12,52.79v90.64H539.6Zm-8,81H415.19V354.22c-.16-44.79,42.12-44.79,42.12-44.79h21.74a54.87,54.87,0,0,1,30.32,8.93c21.06,13.94,22.06,35.33,22.06,35.33Z" fill="#2f2e41"/><path d="M539.43,355.29s-.54-48-56-54.39H453.05s-46.39,2.66-50.12,52.79v90.64H539.6Zm-8,81H415.19V354.22c-.16-44.79,42.12-44.79,42.12-44.79h21.74a54.87,54.87,0,0,1,30.32,8.93c21.06,13.94,22.06,35.33,22.06,35.33Z" opacity="0.2"/><rect x="631.38" y="385.14" width="2" height="16" fill="#fff"/><rect x="631.38" y="411.05" width="2" height="16" fill="#fff"/><rect x="616.21" y="405.47" width="12.89" height="2" fill="#fff"/><rect x="636.12" y="405.47" width="12.89" height="2" fill="#fff"/><polygon points="347.47 439.53 508.5 457.13 519.7 354.75 359.91 341.42 347.47 439.53" fill="#2f2e41"/><polygon points="347.47 439.53 508.5 457.13 519.7 354.75 359.91 341.42 347.47 439.53" opacity="0.4"/><rect x="583.86" y="254.64" width="61.77" height="34.26" fill="#ff6584"/><polygon points="645.63 254.64 583.86 254.64 583.86 287.06 583.86 288.9 583.86 345.77 593.02 345.77 593.02 288.9 645.63 288.9 645.63 254.64" fill="#2f2e41"/><polygon points="645.63 254.64 583.86 254.64 583.86 287.06 583.86 288.9 583.86 345.77 593.02 345.77 593.02 288.9 645.63 288.9 645.63 254.64" opacity="0.1" style="isolation:isolate"/><rect x="347.47" y="664.28" width="375.91" height="5.07" fill="#ccc"/><path d="M663.33,659.25c3.93-6.13,13.54-1.69,14.1-1.16h.35A16.76,16.76,0,0,0,691,641a12.24,12.24,0,0,0-.17-1.92L689.12,628l7.79.52s23.78.53,23.72,1.46-4.39,6.21-2.7,18.89c.38,2.76,3.63,8,3.12,14.62s-1.83,6.6-1.83,6.6-24.38.14-41.32-.15c-8.31-.14-14.84-.37-15.73-.8C662.17,669.11,661.18,662.59,663.33,659.25Z" fill="#2f2e41"/><path d="M683.15,606.26a4,4,0,0,1,.36-1.35c1.69-4.08.63-11.4,0-22-1.51-24.91-3.3-53-3.2-73,.05-9.86,1.73-53.67,3.18-90.33,1.16-28.82,2.17-53.21,2.17-53.21l64-3.83S728.88,505.77,727,513.68c-5.34,21.93-.67,26.13,0,45.46,1.18,33.89,1.28,27.39,1.28,33.35,0,2.83,2.71,7,2.49,9.78s-3.54,4.06-3.86,8.31,1.75,6.63,1.47,10.42-3,8.29-7.75,8.88S693.66,629.27,689,628c-3.93-1.1-5-4-6-6.08-.19-.37-.38-.73-.56-1-1.29-2,.69-3.2,1.49-7.45S682.87,609,683.15,606.26Z" fill="#2f2e41"/><g clip-path="url(#f1f7be3c-b55e-4734-be85-8ddddc151e72)"><path d="M710.85,586.24c0-5.79-7.21-.9-5.74-7.78s5.74-40,5.74-43.53-12.64-32.87-12.64-32.87l5.29-9.23c-3.35-5.93-12.3-41.2-20-73.25,1.16-28.82,2.17-53.21,2.17-53.21l64-3.83S728.88,505.77,727,513.68c-5.34,21.93-.67,26.13,0,45.46,1.18,33.89,1.28,27.39,1.28,33.35,0,2.83,2.71,7,2.49,9.78s-3.54,4.06-3.86,8.31,1.75,6.63,1.47,10.42-3,8.29-7.75,8.88S693.66,629.27,689,628c-3.93-1.11-5-4-6-6.09C711.43,617.55,710.85,591.58,710.85,586.24Z" opacity="0.3" style="isolation:isolate"/></g><path d="M739.74,627.59l3.6,11.13c2.85,8.81-1.35,17.13-9.7,19h-.36c.36-.07-10.84-5.26-13.89,1.16-1.54,3.24.56,9.75.56,9.75,3,1.23,57.21.93,57.21.93s1.23,0,.69-6.59-4.78-11.83-5.62-14.59c-4-12.65-.48-17.92-.56-18.87s-24-1.44-24-1.44Z" fill="#2f2e41"/><g clip-path="url(#a256b1ac-6327-48da-afc4-54752d20151b)"><path d="M739.74,627.59l3.6,11.13c2.85,8.81-1.35,17.13-9.7,19h-.36c.36-.07-10.84-5.26-13.89,1.16-1.54,3.24.56,9.75.56,9.75,3,1.23,57.21.93,57.21.93s1.23,0,.69-6.59-4.78-11.83-5.62-14.59c-4-12.65-.48-17.92-.56-18.87s-24-1.44-24-1.44Z" fill="#fff" opacity="0.25" style="isolation:isolate"/></g><path d="M691.17,396c2.37,14.6,7,22.14,7,22.14,4.88,36.9,10.83,81.52,12.52,91.48,3.32,20,10,48,15.74,72.85,2.44,10.67,4.78,18,3.75,22a3.43,3.43,0,0,0-.12,1.35c.25,2.78,2.16,2.9,2.08,7.15s-1.85,5.44-.22,7.46,3,5.79,7.78,7.09,27.2,2.51,31.88,1.92,6.59-5.1,6.23-8.86-2.86-6.17-3.27-10.4,2.71-5.47,2.44-8.3-3.73-7-4.18-9.78c-1-5.94,0,.59-7-33.29-4-19.31-9.38-23.49-7.81-45.38.5-7.89-3.38-150.89-3.38-150.89l-63.29,3.83" fill="#2f2e41"/><g clip-path="url(#f21a3439-6625-4270-810c-14825efb10dc)"><path d="M726.66,371.86c-11.67.9-35.39-5.49-35.39-5.49l-1.7,11.37S702.3,387,723.2,388.87a198.83,198.83,0,0,0,32.19,0l-.56-21.36C749.51,369.56,738.33,371,726.66,371.86Z" opacity="0.3" style="isolation:isolate"/></g><path d="M627.05,269.39c-.29,2.94,4.61,10.77,5.54,16.5s.08,7.43,5.91,9.43,10.54,4.1,10.54,4.1,20.05,22,37.71,30.49c0,0,9.86-18.83,13.06-32.28s7.67-24.4,2-32.33a337.87,337.87,0,0,0-18.64,31.77c-2.66,5.08-26.8-3.39-26.8-3.39.8-3.05,1.42-6.12,1.92-9.23.25-2.71-5.41-8.24-6.27-11.86s-2.41-9.08-4.37-6.9a9.87,9.87,0,0,0-2.36,7.07c.66.95,1.32,2.47,2.36,4.06a11,11,0,0,1,1,4.71s-14.43-9.84-16.12-13.55S627.34,266.44,627.05,269.39Z" fill="#f9b499"/><path d="M679.77,375.31c15.26,4.48,50.11,11.78,78.91-2.91h0c-2.83-25.07-6.88-28.54-.82-53.95,1.66-7,10.27-21.82,13-42.36-19.91,13.62-30.56,1.6-32.05-12-1.31-12.11,9.84-27,13.94-34.52-3.93-3-11.5-2.74-13.37-2.17-3.55,9.12-8.28,30-20.19,37.27s-16-11.11-11.28-27.29l-6.95,2.42C682.38,285.39,684.43,349.77,679.77,375.31Z" fill="#0071f2"/><g clip-path="url(#b9d26a6f-c0cb-40cc-884f-d978d84f6080)"><path d="M744.83,347.68l-16.12,2.14a109.14,109.14,0,0,1-37.54-1.54h0c6.69,19.9,53.66-.6,53.66-.6" opacity="0.1" style="isolation:isolate"/><path d="M738.74,305.55c-18.16-10.69-11.39-29.32-11.39-29.32l34.14,27.1S751,312.79,738.74,305.55Z" opacity="0.1" style="isolation:isolate"/></g><path d="M636.79,239.05a2.61,2.61,0,0,0-.22-.24,4.26,4.26,0,0,0-6,0L626,243.23a4.9,4.9,0,0,0-1.05,5.35l14.5,39.19a4.8,4.8,0,0,0,1.7,2c2,1.39,6.75.75,8.09-1.4L652,284a4.89,4.89,0,0,0,.42-4.29l-14.7-39.22A4.59,4.59,0,0,0,636.79,239.05Z" fill="#2f2e41"/><path d="M738.77,256.77l-21.29,46.7c-8.17-1.51-47.54-11.67-47.54-11.67s-3-14.84-6.05-20.53c-2.49-4.7-18.75-4.48-18.9-2.78-.44,4.17,5.08,4.17,5.08,4.17-3.91,5.35.19,8.25.19,8.25s-1.85,6.91.39,7.4c3.55.78,3.47-3.39,3.47-3.39a10.17,10.17,0,0,0,1.93,10.39c4.37,4.45,64.8,37,70.71,34.15S759.64,284.8,766.7,268a48.26,48.26,0,0,0,4.17-16.94" fill="#f9b499"/><path d="M633.13,287.87s-3.51-10.56,1-11.49c1.48-.32,4.19,11.17,4.19,11.17,3.47.66,7.86,1.13,11,2.64a16.77,16.77,0,0,1,6.08,7.64" fill="#f9b499"/><path d="M659.15,284.62a.31.31,0,0,1-.28-.18c-.6-1.32-3.81-3.34-6.17-3.17a2.53,2.53,0,0,0-2.43,2,.32.32,0,0,1-.39.21.31.31,0,0,1-.21-.38,3.15,3.15,0,0,1,3-2.46c2.72-.2,6.09,2,6.77,3.53a.31.31,0,0,1-.15.41A.31.31,0,0,1,659.15,284.62Z" fill="#d1d3d4"/><path d="M649.61,280h-.09a.32.32,0,0,1-.21-.39A3.77,3.77,0,0,1,651.5,277c3-1.24,7.6,1.24,7.8,1.35a.3.3,0,0,1,.12.42.31.31,0,0,1-.42.12s-4.54-2.44-7.27-1.32a3.18,3.18,0,0,0-1.82,2.17A.3.3,0,0,1,649.61,280Z" fill="#d1d3d4"/><path d="M660.89,274.2h0s-3.3-.65-4-.71l-1.91-.19c-2-.21-3.9-.4-5-.4a.32.32,0,0,1,0-.63c1.1,0,3,.2,5,.41l1.91.19c.74.07,3.93.69,4.06.72a.31.31,0,0,1,.25.36A.31.31,0,0,1,660.89,274.2Z" fill="#d1d3d4"/><path d="M734.6,225.05c2.09,1.19,2.37,2.19,4.76,2.34h0s-10.86,42.2-26.49,39.32c-12.6-3.17-5-29.29-5-29.29C716.48,260.68,734.6,225.05,734.6,225.05Z" fill="#0071f2"/><path d="M734.6,225.05c2.09,1.19,2.37,2.19,4.76,2.34h0s-10.86,42.2-26.49,39.32c-12.6-3.17-5-29.29-5-29.29C716.48,260.68,734.6,225.05,734.6,225.05Z" opacity="0.3" style="isolation:isolate"/><path d="M752.73,229.61c-12.67,18-17.09,30.09-17.09,30.09l-8.88,17.58s-2.75,7,14.2,19.31c8.06,5.91,20.82,7,20.82,7S772.55,283.29,772.5,259a42.27,42.27,0,0,0-2.4-14.82,23.27,23.27,0,0,0-17.37-14.55Z" fill="#0071f2"/><path d="M752.73,229.61c-12.67,18-17.09,30.09-17.09,30.09l-8.88,17.58s-2.75,7,14.2,19.31c8.06,5.91,20.82,7,20.82,7S772.55,283.29,772.5,259a42.27,42.27,0,0,0-2.4-14.82,23.27,23.27,0,0,0-17.37-14.55Z" opacity="0.3" style="isolation:isolate"/><path d="M687.76,252.21c-4.57,10.7-8.81,31.41-8.81,31.41,1.34,1.93,10.07,3.62,10.07,3.62,1.61-11.67,3-22.11,11.92-47.4C695.5,242.08,690.68,245.42,687.76,252.21Z" fill="#0071f2"/><path d="M687.76,252.21c-4.57,10.7-8.81,31.41-8.81,31.41,1.34,1.93,10.07,3.62,10.07,3.62,1.61-11.67,3-22.11,11.92-47.4C695.5,242.08,690.68,245.42,687.76,252.21Z" opacity="0.3" style="isolation:isolate"/><path d="M737.28,186.29a93.59,93.59,0,0,0-4.08,17.32A52.72,52.72,0,0,0,733,218c0,.1.47,2.07.47,2.07a15.63,15.63,0,0,0,4.14,6.77,90.53,90.53,0,0,1-10.4,15.91,22.08,22.08,0,0,1-8,6.78,8.83,8.83,0,0,1-9.8-1.58c-2.34-2.62.2-7.28.35-10.79.09-1.86-1.18-25-1.18-25Z" fill="#f9b499"/><path d="M692.91,175c-8,20-4.06,50,11,53.21s31.75-20.82,39.22-42.35-7-29.78-7-29.78C721.22,143.91,700.89,155,692.91,175Z" fill="#f9b499"/><path d="M721.74,185.78c18.83,10.41,14.08,15.13,14.08,15.13l.27-.23a108.58,108.58,0,0,0,6.56-15c7.47-21.54-6.95-29.79-6.95-29.79-10.53-8.53-23.7-5.61-33.37,3.81C706.43,160.53,715.56,182.3,721.74,185.78Z" fill="#2f2e41"/><path d="M717.17,167a50.54,50.54,0,0,0-5.89,6.93c-6.27,8.56-11.3,10.83-21,9.64-5.88-.75-8.89-10.91-8.89-10.91h0a13.79,13.79,0,0,0,10.75-10.5c.93-3.85,8.12-11.15,13.56-10.88,10.43.51,11.75,15.5,11.75,15.5Z" fill="#2f2e41"/><path d="M729.93,209.18c4.33,2.13,17-4.32,13.84-12.38-5.08-13-10.79-1.19-10.79-1.19" fill="#f9b499"/><path d="M711.07,145.91c1.53.32,4.29,1,4.29,1a33.4,33.4,0,0,0-3.39,8.66C711.67,152.6,711.41,148.87,711.07,145.91Z" fill="#2f2e41"/><path d="M725.84,217.16,726,217h0c-.41.83-7,15.31-13.47,16.07a4.22,4.22,0,0,1-2.89-.22l-.22-4.65C712.78,228.16,717.69,225.47,725.84,217.16Z" fill="#f4a48e"/><path d="M300.39,384.18c-4.11-.19-8.31-.56-12.46-1.12h0a.87.87,0,0,1-.73-1,.9.9,0,0,1,1-.75c4.09.54,8.24.91,12.3,1.12h0a.87.87,0,0,1,.84.91.89.89,0,0,1-.87.85Zm-24.75-3.27c-4.2-.91-8.26-2-12.11-3.2l-.14,0a.88.88,0,1,1,.67-1.63c3.8,1.2,7.82,2.25,11.95,3.15a.87.87,0,0,1,.78,1,.89.89,0,0,1-1,.79Zm-23.51-7.56a.82.82,0,0,1-.35-.08,66.17,66.17,0,0,1-8.79-4.8l-2.11-1.41h0a.86.86,0,0,1-.21-1.2.88.88,0,0,1,1.21-.25L244,367a64.34,64.34,0,0,0,8.6,4.66h0a.88.88,0,0,1,.41,1.17.84.84,0,0,1-.79.51Zm-20.69-13.69a.86.86,0,0,1-.56-.26,77.39,77.39,0,0,1-8.79-8.95l0,0a.87.87,0,0,1,.12-1.21.9.9,0,0,1,1.25.11,75.42,75.42,0,0,0,8.63,8.79.88.88,0,0,1,.09,1.24.89.89,0,0,1-.67.3ZM215.81,340.5a.85.85,0,0,1-.77-.45c-.6-1.18-1.14-2.34-1.63-3.52a55.43,55.43,0,0,1-2.73-8.35.9.9,0,1,1,1.76-.42,55,55,0,0,0,2.64,8.09c.48,1.15,1,2.27,1.58,3.37a.88.88,0,0,1-.39,1.18.7.7,0,0,1-.4.1Zm-6.09-23.93a.88.88,0,0,1-.88-.83c-.16-2.43-.25-5-.25-7.84v-4.71a.86.86,0,0,1,.9-.82h0a.87.87,0,0,1,.84.91v4.62c0,2.8.09,5.33.24,7.72v0a.9.9,0,0,1-.83.93h-.05Zm.35-24.87h0a.88.88,0,0,1-.85-.92c.16-3.55.32-7.36.32-11.16v-1.23a.88.88,0,0,1,.88-.88h.13a.81.81,0,0,1,.75.86v1.25c0,3.83-.16,7.74-.32,11.25a.88.88,0,0,1-.88.83Zm-75.16-10.83a73.55,73.55,0,0,1-7.85-.39.88.88,0,1,1,.19-1.75,68.57,68.57,0,0,0,7.72.38c1.56,0,3.11-.1,4.58-.1h0a.88.88,0,0,1,.92.84h0a.87.87,0,0,1-.85.91c-1.49.11-3.06.11-4.65.11Zm17-.88a.88.88,0,0,1,0-1.76c4-.31,8.2-.7,12.3-1.12h0a.88.88,0,0,1,1,.79h0a.89.89,0,0,1-.79,1c-4.12.42-8.3.79-12.41,1.1h0Zm-37.21-2.6a21.26,21.26,0,0,1-9.7-8.28l-.08-.12a.88.88,0,0,1,1.57-.79,19.65,19.65,0,0,0,8.95,7.59.89.89,0,0,1,.44,1.16.92.92,0,0,1-.81.51A.9.9,0,0,1,114.72,277.39Zm61.92.09a.88.88,0,0,1-.11-1.76c4.1-.53,8.23-1.12,12.31-1.76a.91.91,0,0,1,1,.74h0a.88.88,0,0,1-.74,1c-4,.64-8.21,1.23-12.3,1.76h-.11Zm24.64-3.87a.9.9,0,0,1-.86-.7h0a.87.87,0,0,1,.72-1c4-.74,8.14-1.55,12.18-2.39a.9.9,0,0,1,.35,1.76c-4,.84-8.15,1.65-12.21,2.39h-.16Zm24.34-5.1a.86.86,0,0,1-.84-.66.92.92,0,0,1,.67-1.08c4-.93,8.05-1.95,12-3a.91.91,0,0,1,.44,1.76c-4,1.05-8.07,2.07-12.08,3h-.21Zm-16.13-1.65a.87.87,0,0,1-.88-.74,60.12,60.12,0,0,0-3-11.88.88.88,0,0,1,1.65-.6,61.07,61.07,0,0,1,3.11,12.26.89.89,0,0,1-.73,1h-.15Zm40.19-4.69a.85.85,0,0,1-.82-.56.87.87,0,0,1,.6-1.09c3.95-1.15,7.94-2.38,11.86-3.62a.88.88,0,0,1,1.11.56v0a.86.86,0,0,1-.58,1.08c-3.93,1.26-8,2.49-11.91,3.63a.53.53,0,0,1-.25,0ZM103,257.74h0a.89.89,0,0,1-.69-1,20,20,0,0,1,6.77-10.82h0a.87.87,0,0,1,1.24,0h0a.87.87,0,0,1,0,1.22,18.34,18.34,0,0,0-6.22,9.86.9.9,0,0,1-.86.72Zm170.33-3.16a.9.9,0,0,1-.81-.51.88.88,0,0,1,.54-1.11c4-1.42,7.9-2.88,11.62-4.36h0a.87.87,0,0,1,1.14.49.9.9,0,0,1-.49,1.15c-3.76,1.47-7.68,2.95-11.69,4.37a.71.71,0,0,1-.29,0Zm23.15-9.06a.89.89,0,1,1-.37-1.75c3.85-1.76,7.68-3.52,11.19-5.28l.12-.05a.87.87,0,0,1,1.15.47.89.89,0,0,1-.48,1.15c-3.6,1.84-7.4,3.6-11.26,5.36a.69.69,0,0,1-.35,0Zm-95.85-1.67a.86.86,0,0,1-.68-.31,32.42,32.42,0,0,0-7.93-7.66l-.86-.55h0a.88.88,0,0,1,.93-1.49l.92.58a33.88,33.88,0,0,1,8.34,8.08.87.87,0,0,1-.17,1.23,1,1,0,0,1-.53.16ZM120,240.34a.87.87,0,0,1-.77-.42.91.91,0,0,1,.35-1.2c1.5-.81,3-1.54,4.34-2.23,2.31-1.12,4.66-2.18,7-3.09l.13-.05a.88.88,0,0,1,.51,1.68c-2.32.92-4.63,1.94-6.86,3-1.37.69-2.81,1.43-4.29,2.22a.87.87,0,0,1-.42.1Zm198.54-6.2a.91.91,0,0,1-.75-.43.89.89,0,0,1,.31-1.21c3.68-2.11,7.21-4.32,10.55-6.55a.87.87,0,0,1,1,1.45c-3.3,2.27-6.87,4.49-10.54,6.61a.78.78,0,0,1-.44.13Zm-175.34-2.71a.89.89,0,0,1-.19-1.76,91.47,91.47,0,0,1,12.3-2,.89.89,0,0,1,1,.79.87.87,0,0,1-.79,1,89.24,89.24,0,0,0-12.15,2h-.21Zm36.72-.65a61.16,61.16,0,0,0-9.12-1.44c-1-.09-2-.23-3-.23a.89.89,0,0,1-.82-.92v-.07a.85.85,0,0,1,.93-.75c1,0,2.06.21,3.08.21a63.37,63.37,0,0,1,9.38,1.49.89.89,0,0,1,.65,1.06.88.88,0,0,1-.86.68Zm159.31-10.56a.8.8,0,0,1-.58-1.46c3.3-2.59,6.47-5.29,9.4-8a.91.91,0,0,1,1.25,0h0a.87.87,0,0,1,0,1.24c-3,2.76-6.17,5.5-9.51,8.12a.9.9,0,0,1-.54.18Zm18.14-17a.85.85,0,0,1-.74-1.45,107,107,0,0,0,7.7-9.67.91.91,0,0,1,1.23-.23.9.9,0,0,1,.21,1.23,108.33,108.33,0,0,1-7.72,9.88.89.89,0,0,1-.67.3Zm14.07-20.44a.79.79,0,0,1-.4-.05.89.89,0,0,1-.39-1.18,85.63,85.63,0,0,0,4.89-11.3.88.88,0,0,1,1.11-.54.89.89,0,0,1,.54,1.12,88.78,88.78,0,0,1-5,11.51.88.88,0,0,1-.78.5Zm7.88-23.46a.87.87,0,0,1-.7-1c.15-.91.29-1.83.43-2.76a64.54,64.54,0,0,0,.64-9.1v-.35a.88.88,0,0,1,1.76,0v.36a69.51,69.51,0,0,1-.66,9.35c-.14.95-.28,1.89-.45,2.82a.87.87,0,0,1-.86.74Zm.16-24.71a.86.86,0,0,1-.95-.7,72.4,72.4,0,0,0-3.25-11.85.88.88,0,0,1,.51-1.13.92.92,0,0,1,1.14.53,74.8,74.8,0,0,1,3.32,12.13.88.88,0,0,1-.7,1h-.07Zm-8.62-23.22A.86.86,0,0,1,370,111a70.26,70.26,0,0,0-7-10,.87.87,0,0,1,1.31-1.14,69,69,0,0,1,7.3,10.24.9.9,0,0,1-.32,1.22,1.07,1.07,0,0,1-.44.12ZM354.72,92.7a.85.85,0,0,1-.58-.17A65.25,65.25,0,0,0,343.78,86h0a.89.89,0,0,1,.8-1.58,65.73,65.73,0,0,1,10.63,6.73.85.85,0,0,1,.33.68.88.88,0,0,1-.88.88Zm-108.06-11a.88.88,0,1,1,0-1.75A92.14,92.14,0,0,0,259,78.89a.89.89,0,1,1,.25,1.76,95.14,95.14,0,0,1-12.5,1.1h0Zm85.81-.52a104.7,104.7,0,0,0-11.94-3.11h0a.84.84,0,0,1-.63-1v0a.88.88,0,0,1,1-.69A108.11,108.11,0,0,1,333,79.54a.89.89,0,0,1,.74,1,.9.9,0,0,1-1,.74Zm-61.12-2.62a.9.9,0,0,1-.79-.76.89.89,0,0,1,.71-1c3.79-.7,8.08-1.51,12.3-2.11h0a.86.86,0,0,1,.95.76.87.87,0,0,1-.73,1c-4.26.6-8.53,1.39-12.31,2.1h-.16Zm37-2.32c-2.25-.26-4.61-.49-7-.69a43.16,43.16,0,0,0-4.73-.17h-.56a.91.91,0,0,1-.88-.86h0a.88.88,0,0,1,.86-.9h.58c1.67,0,3.3.07,4.85.19,2.41.2,4.8.43,7,.67a.88.88,0,1,1-.11,1.76Z" fill="#3f3d56"/><path d="M313,384.23a.88.88,0,1,1,0-1.75c2.07-.09,4.11-.23,6.1-.43h.06a.83.83,0,0,1,.88.8v0a.86.86,0,0,1-.8.92c-2,.2-4.07.36-6.17.44H313Z" fill="#407bff"/><g opacity="0.6"><path d="M300.39,384.18c-4.11-.19-8.31-.56-12.46-1.12h0a.87.87,0,0,1-.73-1,.9.9,0,0,1,1-.75c4.09.54,8.24.91,12.3,1.12h0a.87.87,0,0,1,.84.91.89.89,0,0,1-.87.85Zm-24.75-3.27c-4.2-.91-8.26-2-12.11-3.2l-.14,0a.88.88,0,1,1,.67-1.63c3.8,1.2,7.82,2.25,11.95,3.15a.87.87,0,0,1,.78,1,.89.89,0,0,1-1,.79Zm-23.51-7.56a.82.82,0,0,1-.35-.08,66.17,66.17,0,0,1-8.79-4.8l-2.11-1.41h0a.86.86,0,0,1-.21-1.2.88.88,0,0,1,1.21-.25L244,367a64.34,64.34,0,0,0,8.6,4.66h0a.88.88,0,0,1,.41,1.17.84.84,0,0,1-.79.51Zm-20.69-13.69a.86.86,0,0,1-.56-.26,77.39,77.39,0,0,1-8.79-8.95l0,0a.87.87,0,0,1,.12-1.21.9.9,0,0,1,1.25.11,75.42,75.42,0,0,0,8.63,8.79.88.88,0,0,1,.09,1.24.89.89,0,0,1-.67.3ZM215.81,340.5a.85.85,0,0,1-.77-.45c-.6-1.18-1.14-2.34-1.63-3.52a55.43,55.43,0,0,1-2.73-8.35.9.9,0,1,1,1.76-.42,55,55,0,0,0,2.64,8.09c.48,1.15,1,2.27,1.58,3.37a.88.88,0,0,1-.39,1.18.7.7,0,0,1-.4.1Zm-6.09-23.93a.88.88,0,0,1-.88-.83c-.16-2.43-.25-5-.25-7.84v-4.71a.86.86,0,0,1,.9-.82h0a.87.87,0,0,1,.84.91v4.62c0,2.8.09,5.33.24,7.72v0a.9.9,0,0,1-.83.93h-.05Zm.35-24.87h0a.88.88,0,0,1-.85-.92c.16-3.55.32-7.36.32-11.16v-1.23a.88.88,0,0,1,.88-.88h.13a.81.81,0,0,1,.75.86v1.25c0,3.83-.16,7.74-.32,11.25a.88.88,0,0,1-.88.83Zm-75.16-10.83a73.55,73.55,0,0,1-7.85-.39.88.88,0,1,1,.19-1.75,68.57,68.57,0,0,0,7.72.38c1.56,0,3.11-.1,4.58-.1h0a.88.88,0,0,1,.92.84h0a.87.87,0,0,1-.85.91c-1.49.11-3.06.11-4.65.11Zm17-.88a.88.88,0,0,1,0-1.76c4-.31,8.2-.7,12.3-1.12h0a.88.88,0,0,1,1,.79h0a.89.89,0,0,1-.79,1c-4.12.42-8.3.79-12.41,1.1h0Zm-37.21-2.6a21.26,21.26,0,0,1-9.7-8.28l-.08-.12a.88.88,0,0,1,1.57-.79,19.65,19.65,0,0,0,8.95,7.59.89.89,0,0,1,.44,1.16.92.92,0,0,1-.81.51A.9.9,0,0,1,114.72,277.39Zm61.92.09a.88.88,0,0,1-.11-1.76c4.1-.53,8.23-1.12,12.31-1.76a.91.91,0,0,1,1,.74h0a.88.88,0,0,1-.74,1c-4,.64-8.21,1.23-12.3,1.76h-.11Zm24.64-3.87a.9.9,0,0,1-.86-.7h0a.87.87,0,0,1,.72-1c4-.74,8.14-1.55,12.18-2.39a.9.9,0,0,1,.35,1.76c-4,.84-8.15,1.65-12.21,2.39h-.16Zm24.34-5.1a.86.86,0,0,1-.84-.66.92.92,0,0,1,.67-1.08c4-.93,8.05-1.95,12-3a.91.91,0,0,1,.44,1.76c-4,1.05-8.07,2.07-12.08,3h-.21Zm-16.13-1.65a.87.87,0,0,1-.88-.74,60.12,60.12,0,0,0-3-11.88.88.88,0,0,1,1.65-.6,61.07,61.07,0,0,1,3.11,12.26.89.89,0,0,1-.73,1h-.15Zm40.19-4.69a.85.85,0,0,1-.82-.56.87.87,0,0,1,.6-1.09c3.95-1.15,7.94-2.38,11.86-3.62a.88.88,0,0,1,1.11.56v0a.86.86,0,0,1-.58,1.08c-3.93,1.26-8,2.49-11.91,3.63a.53.53,0,0,1-.25,0ZM103,257.74h0a.89.89,0,0,1-.69-1,20,20,0,0,1,6.77-10.82h0a.87.87,0,0,1,1.24,0h0a.87.87,0,0,1,0,1.22,18.34,18.34,0,0,0-6.22,9.86.9.9,0,0,1-.86.72Zm170.33-3.16a.9.9,0,0,1-.81-.51.88.88,0,0,1,.54-1.11c4-1.42,7.9-2.88,11.62-4.36h0a.87.87,0,0,1,1.14.49.9.9,0,0,1-.49,1.15c-3.76,1.47-7.68,2.95-11.69,4.37a.71.71,0,0,1-.29,0Zm23.15-9.06a.89.89,0,1,1-.37-1.75c3.85-1.76,7.68-3.52,11.19-5.28l.12-.05a.87.87,0,0,1,1.15.47.89.89,0,0,1-.48,1.15c-3.6,1.84-7.4,3.6-11.26,5.36a.69.69,0,0,1-.35,0Zm-95.85-1.67a.86.86,0,0,1-.68-.31,32.42,32.42,0,0,0-7.93-7.66l-.86-.55h0a.88.88,0,0,1,.93-1.49l.92.58a33.88,33.88,0,0,1,8.34,8.08.87.87,0,0,1-.17,1.23,1,1,0,0,1-.53.16ZM120,240.34a.87.87,0,0,1-.77-.42.91.91,0,0,1,.35-1.2c1.5-.81,3-1.54,4.34-2.23,2.31-1.12,4.66-2.18,7-3.09l.13-.05a.88.88,0,0,1,.51,1.68c-2.32.92-4.63,1.94-6.86,3-1.37.69-2.81,1.43-4.29,2.22a.87.87,0,0,1-.42.1Zm198.54-6.2a.91.91,0,0,1-.75-.43.89.89,0,0,1,.31-1.21c3.68-2.11,7.21-4.32,10.55-6.55a.87.87,0,0,1,1,1.45c-3.3,2.27-6.87,4.49-10.54,6.61a.78.78,0,0,1-.44.13Zm-175.34-2.71a.89.89,0,0,1-.19-1.76,91.47,91.47,0,0,1,12.3-2,.89.89,0,0,1,1,.79.87.87,0,0,1-.79,1,89.24,89.24,0,0,0-12.15,2h-.21Zm36.72-.65a61.16,61.16,0,0,0-9.12-1.44c-1-.09-2-.23-3-.23a.89.89,0,0,1-.82-.92v-.07a.85.85,0,0,1,.93-.75c1,0,2.06.21,3.08.21a63.37,63.37,0,0,1,9.38,1.49.89.89,0,0,1,.65,1.06.88.88,0,0,1-.86.68Zm159.31-10.56a.8.8,0,0,1-.58-1.46c3.3-2.59,6.47-5.29,9.4-8a.91.91,0,0,1,1.25,0h0a.87.87,0,0,1,0,1.24c-3,2.76-6.17,5.5-9.51,8.12a.9.9,0,0,1-.54.18Zm18.14-17a.85.85,0,0,1-.74-1.45,107,107,0,0,0,7.7-9.67.91.91,0,0,1,1.23-.23.9.9,0,0,1,.21,1.23,108.33,108.33,0,0,1-7.72,9.88.89.89,0,0,1-.67.3Zm14.07-20.44a.79.79,0,0,1-.4-.05.89.89,0,0,1-.39-1.18,85.63,85.63,0,0,0,4.89-11.3.88.88,0,0,1,1.11-.54.89.89,0,0,1,.54,1.12,88.78,88.78,0,0,1-5,11.51.88.88,0,0,1-.78.5Zm7.88-23.46a.87.87,0,0,1-.7-1c.15-.91.29-1.83.43-2.76a64.54,64.54,0,0,0,.64-9.1v-.35a.88.88,0,0,1,1.76,0v.36a69.51,69.51,0,0,1-.66,9.35c-.14.95-.28,1.89-.45,2.82a.87.87,0,0,1-.86.74Zm.16-24.71a.86.86,0,0,1-.95-.7,72.4,72.4,0,0,0-3.25-11.85.88.88,0,0,1,.51-1.13.92.92,0,0,1,1.14.53,74.8,74.8,0,0,1,3.32,12.13.88.88,0,0,1-.7,1h-.07Zm-8.62-23.22A.86.86,0,0,1,370,111a70.26,70.26,0,0,0-7-10,.87.87,0,0,1,1.31-1.14,69,69,0,0,1,7.3,10.24.9.9,0,0,1-.32,1.22,1.07,1.07,0,0,1-.44.12ZM354.72,92.7a.85.85,0,0,1-.58-.17A65.25,65.25,0,0,0,343.78,86h0a.89.89,0,0,1,.8-1.58,65.73,65.73,0,0,1,10.63,6.73.85.85,0,0,1,.33.68.88.88,0,0,1-.88.88Zm-108.06-11a.88.88,0,1,1,0-1.75A92.14,92.14,0,0,0,259,78.89a.89.89,0,1,1,.25,1.76,95.14,95.14,0,0,1-12.5,1.1h0Zm85.81-.52a104.7,104.7,0,0,0-11.94-3.11h0a.84.84,0,0,1-.63-1v0a.88.88,0,0,1,1-.69A108.11,108.11,0,0,1,333,79.54a.89.89,0,0,1,.74,1,.9.9,0,0,1-1,.74Zm-61.12-2.62a.9.9,0,0,1-.79-.76.89.89,0,0,1,.71-1c3.79-.7,8.08-1.51,12.3-2.11h0a.86.86,0,0,1,.95.76.87.87,0,0,1-.73,1c-4.26.6-8.53,1.39-12.31,2.1h-.16Zm37-2.32c-2.25-.26-4.61-.49-7-.69a43.16,43.16,0,0,0-4.73-.17h-.56a.91.91,0,0,1-.88-.86h0a.88.88,0,0,1,.86-.9h.58c1.67,0,3.3.07,4.85.19,2.41.2,4.8.43,7,.67a.88.88,0,1,1-.11,1.76Z" fill="#fff"/><path d="M313,384.23a.88.88,0,1,1,0-1.75c2.07-.09,4.11-.23,6.1-.43h.06a.83.83,0,0,1,.88.8v0a.86.86,0,0,1-.8.92c-2,.2-4.07.36-6.17.44H313Z" fill="#fff"/></g><rect x="144.67" y="14.08" width="73.43" height="39.44" rx="5.66" transform="translate(-1.23 7.47) rotate(-2.35)" fill="#d1d3d4"/><path d="M181.19,41.13,147.41,21.8a.88.88,0,0,1,.88-1.53l33.39,19.16L213.32,17.6a.89.89,0,0,1,1.21.23h0a.87.87,0,0,1-.24,1.22L182.17,41.17a.91.91,0,0,1-.51.16A.77.77,0,0,1,181.19,41.13Z" fill="#fff"/><path d="M148.32,49.57h0a.86.86,0,0,1,.22-1.2l18.39-12.81a.89.89,0,0,1,1.23.21h0a.88.88,0,0,1-.24,1.22L149.54,49.76a.83.83,0,0,1-.5.16A.86.86,0,0,1,148.32,49.57Z" fill="#fff"/><path d="M214.46,47.09,195.13,35.86a.87.87,0,0,1-.29-1.07.89.89,0,0,1,1.17-.44l19.33,11.21a.87.87,0,0,1,.46.82.88.88,0,0,1-.92.84A.9.9,0,0,1,214.46,47.09Z" fill="#fff"/><polygon points="226.91 68.43 211.05 58.64 87.37 30.43 226.91 68.43" fill="#2f2e41"/><polyline points="87.37 30.43 226.91 68.43 211.05 58.64" opacity="0.2" style="isolation:isolate"/><polygon points="199.42 67.2 211.05 58.64 87.37 30.43 199.42 67.2" fill="#2f2e41"/><polygon points="199.42 67.2 193.41 52.12 87.37 30.43 199.42 67.2" fill="#2f2e41"/><polygon points="199.42 67.2 193.41 52.12 87.37 30.43 199.42 67.2" opacity="0.2" style="isolation:isolate"/><polygon points="160.01 64.23 193.41 52.12 87.37 30.43 160.01 64.23" fill="#2f2e41"/><polygon points="329.88 412.87 339.47 311.3 503.7 328.63 491.44 430.47 329.88 412.87" fill="#2f2e41"/><polygon points="329.88 412.87 398.13 364.35 434.92 368.08 491.44 430.47 329.88 412.87" fill="#fff" opacity="0.2"/><rect x="339.47" y="372.88" width="29.06" height="29.06" transform="translate(54.98 -43.85) rotate(7.68)" fill="#fff"/><polygon points="339.47 311.3 415.19 391.54 503.7 328.63 339.47 311.3" fill="#2f2e41"/><polygon points="339.47 311.3 415.19 391.54 503.7 328.63 339.47 311.3" opacity="0.2"/><rect x="455.09" y="366.99" width="1.24" height="44.98" transform="translate(26.02 807.48) rotate(-84.73)" fill="#fff"/><rect x="460.42" y="380.11" width="1.24" height="55.79" transform="translate(5.02 821.61) rotate(-83.71)" fill="#fff"/><circle cx="597.6" cy="346.45" r="14.37" fill="#2f2e41"/><circle cx="597.6" cy="346.45" r="14.37" opacity="0.3" style="isolation:isolate"/><circle cx="597.6" cy="346.45" r="6.21" fill="#2f2e41"/></svg>